<svg xmlns="http://www.w3.org/2000/svg" viewBox="7.959 192 1008 640">
  <path d="M512 768c-267.38 0-397.889-181.965-439.804-255.475-0.168-0.294-0.219-0.469-0.231-0.516-0.001 0-0.002-0.004-0.003-0.009 0.001-0.004 0.002-0.009 0.003-0.009 0.012-0.047 0.063-0.222 0.231-0.516 41.915-73.51 172.423-255.475 439.804-255.475 267.379 0 397.888 181.965 439.804 255.475 0.166 0.294 0.218 0.469 0.23 0.516 0 0 0 0.004 0 0.009s0 0.009 0 0.009c-0.013 0.047-0.064 0.222-0.23 0.516-41.916 73.51-172.425 255.475-439.804 255.475zM1007.398 544.222c11.52-20.203 11.52-44.241 0-64.444-46.298-81.202-193.728-287.778-495.398-287.778-301.673 0-449.103 206.576-495.401 287.778-11.52 20.203-11.52 44.241 0 64.444 46.299 81.203 193.728 287.778 495.401 287.778 301.67 0 449.101-206.575 495.398-287.778zM512 640c-70.694 0-128-57.306-128-128s57.306-128 128-128c70.694 0 128 57.306 128 128s-57.306 128-128 128zM512 704c106.039 0 192-85.961 192-192s-85.961-192-192-192c-106.039 0-192 85.961-192 192s85.961 192 192 192z" fill="#505050"/>
</svg>