<svg xmlns="http://www.w3.org/2000/svg" viewBox="7.959 159.999 1008 697.6">
  <path d="M348.041 412.041c-17.789 29.116-28.041 63.343-28.041 99.959 0 106.039 85.961 192 192 192 36.617 0 70.844-10.253 99.959-28.041l-47.27-47.27c-16.068 7.266-33.907 11.311-52.689 11.311-70.694 0-128-57.306-128-128 0-18.782 4.045-36.621 11.312-52.689l-47.272-47.27zM639.573 522.551c0.282-3.477 0.427-6.997 0.427-10.551 0-70.694-57.306-128-128-128-3.554 0-7.074 0.145-10.551 0.429l-53.491-53.489c20.032-7.085 41.587-10.94 64.043-10.94 106.039 0 192 85.961 192 192 0 22.455-3.857 44.011-10.94 64.043l-53.487-53.491 M211.51 275.511c-106.442 66.808-167.895 156.882-194.911 204.268-11.52 20.203-11.52 44.241 0 64.444 46.299 81.203 193.728 287.778 495.401 287.778 83.298 0 154.837-15.753 215.735-40.265l-49.903-49.903c-48.196 16.205-103.266 26.167-165.833 26.167-267.38 0-397.889-181.965-439.804-255.475-0.168-0.294-0.219-0.469-0.231-0.516v-0.017c0.012-0.047 0.063-0.222 0.231-0.516 25.518-44.753 83.872-129.705 185.957-189.321l-46.644-46.644zM798.195 681.178c82.27-57.289 130.918-128.862 153.609-168.653 0.166-0.294 0.218-0.469 0.23-0.516v-0.017c-0.013-0.047-0.064-0.222-0.23-0.516-41.916-73.51-172.425-255.475-439.804-255.475-45.423 0-86.894 5.251-124.652 14.33l-52.050-52.050c51.862-16.354 110.577-26.279 176.702-26.279 301.67 0 449.101 206.576 495.398 287.778 11.52 20.203 11.52 44.241 0 64.444-24.222 42.483-76.122 119.275-163.302 182.857l-45.901-45.901z M182.623 169.372c12.497-12.497 32.758-12.497 45.255 0l633.567 633.568c12.497 12.497 12.497 32.759 0 45.257s-32.755 12.497-45.252 0l-633.569-633.569c-12.497-12.497-12.497-32.758 0-45.255z" fill="#505050"/>
</svg>