<svg xmlns="http://www.w3.org/2000/svg" viewBox="85.333 85.333 853.3 853.3">
  <path d="M512 874.667c-200.295 0-362.667-162.372-362.667-362.667s162.371-362.667 362.667-362.667c200.294 0 362.667 162.371 362.667 362.667s-162.372 362.667-362.667 362.667zM512 938.667c235.639 0 426.667-191.027 426.667-426.667 0-235.642-191.027-426.667-426.667-426.667-235.642 0-426.667 191.025-426.667 426.667 0 235.639 191.025 426.667 426.667 426.667z M562.086 511.97l152.738-152.408c6.69-6.69 10.449-15.763 10.449-25.224s-3.759-18.534-10.449-25.224c-6.686-6.69-15.761-10.448-25.22-10.448s-18.53 3.758-25.22 10.448l-152.384 152.765-152.386-152.765c-6.689-6.69-15.761-10.448-25.22-10.448s-18.531 3.758-25.22 10.448c-6.689 6.69-10.447 15.763-10.447 25.224s3.758 18.534 10.447 25.224l152.74 152.408-152.74 152.405c-3.329 3.307-5.972 7.232-7.775 11.563s-2.732 8.973-2.732 13.662c0 4.689 0.928 9.335 2.732 13.662 1.803 4.331 4.446 8.26 7.775 11.563 3.302 3.328 7.231 5.973 11.559 7.778 4.329 1.801 8.972 2.731 13.661 2.731s9.332-0.93 13.661-2.731c4.329-1.805 8.257-4.45 11.559-7.778l152.386-152.764 152.384 152.764c3.302 3.328 7.232 5.973 11.563 7.778 4.326 1.801 8.969 2.731 13.658 2.731s9.335-0.93 13.662-2.731c4.331-1.805 8.256-4.45 11.558-7.778 3.332-3.302 5.973-7.232 7.778-11.563 1.801-4.326 2.731-8.973 2.731-13.662s-0.93-9.331-2.731-13.662c-1.805-4.331-4.446-8.256-7.778-11.563l-152.738-152.405z" fill="#505050"/>
</svg>