<svg xmlns="http://www.w3.org/2000/svg" viewBox="213.334 213.334 618.7 618.7">
  <path d="M816.38 304.379c20.826-20.828 20.826-54.597 0-75.424-20.83-20.828-54.596-20.828-75.426 0l-218.287 218.286-218.288-218.286c-20.828-20.828-54.597-20.828-75.424 0s-20.828 54.597 0 75.424l218.286 218.288-218.286 218.287c-20.828 20.83-20.828 54.596 0 75.426 20.828 20.826 54.597 20.826 75.424 0l218.288-218.287 218.287 218.287c20.83 20.826 54.596 20.826 75.426 0 20.826-20.83 20.826-54.596 0-75.426l-218.287-218.287 218.287-218.288z" fill="#505050"/>
</svg>