<svg xmlns="http://www.w3.org/2000/svg" viewBox="320.694 170.566 404.7 682.9">
  <path d="M654.571 181.223c17.732-15.517 44.689-13.72 60.207 4.014s13.717 44.689-4.015 60.206l-56.192-64.22zM710.763 778.556c17.732 15.518 19.533 42.475 4.015 60.207s-42.475 19.533-60.207 4.015l56.192-64.222zM378.031 479.889v0zM710.763 245.443l-304.636 266.557-56.192-64.222 304.637-266.555 56.192 64.22zM406.127 512l304.636 266.556-56.192 64.222-304.637-266.556 56.192-64.222zM406.127 512v0l-56.192 64.222c-38.854-34.001-38.854-94.443 0-128.444l56.192 64.222z" fill="#505050"/>
</svg>