<svg xmlns="http://www.w3.org/2000/svg" viewBox="0 0 227.6 1024">
  <path d="M227.556 113.778c0 62.838-50.94 113.778-113.778 113.778s-113.778-50.94-113.778-113.778c0-62.838 50.94-113.778 113.778-113.778s113.778 50.94 113.778 113.778z M227.556 512c0 62.838-50.94 113.778-113.778 113.778s-113.778-50.94-113.778-113.778c0-62.838 50.94-113.778 113.778-113.778s113.778 50.94 113.778 113.778z M227.556 910.222c0 62.838-50.94 113.778-113.778 113.778s-113.778-50.94-113.778-113.778c0-62.838 50.94-113.778 113.778-113.778s113.778 50.94 113.778 113.778z" fill="#505050"/>
</svg>