<svg xmlns="http://www.w3.org/2000/svg" viewBox="128 128 811.6 748.8">
  <path d="M428.8 723.2c-166.4 0-300.8-134.4-300.8-294.4 0-166.4 134.4-300.8 300.8-300.8s300.8 134.4 300.8 300.8c-6.4 160-140.8 294.4-300.8 294.4zM428.8 224c-108.8 0-204.8 89.6-204.8 204.8s89.6 204.8 204.8 204.8 204.8-89.6 204.8-204.8-96-204.8-204.8-204.8z M889.6 876.8c-12.8 0-19.2-6.4-32-12.8l-224-192c-19.2-19.2-25.6-44.8-6.4-70.4 19.2-19.2 44.8-19.2 70.4-6.4l224 192c19.2 19.2 25.6 44.8 6.4 70.4-12.8 12.8-25.6 19.2-38.4 19.2z" fill="#505050"/>
</svg>