<svg xmlns="http://www.w3.org/2000/svg" viewBox="128 54.858 764.3 914.3">
  <path d="M512 969.143c-21.943 0-36.571-3.657-51.2-14.629-10.971-7.314-18.286-18.286-25.6-32.914-7.314-18.286-7.314-36.571-7.314-51.2v-29.257h171.886v29.257c0 14.629-3.657 32.914-7.314 51.2-7.314 14.629-14.629 25.6-25.6 32.914-18.286 10.971-32.914 14.629-54.857 14.629zM486.4 899.657c0 0 0 3.657 0 3.657 3.657 3.657 3.657 7.314 3.657 7.314s7.314 3.657 21.943 3.657c14.629 0 18.286-3.657 21.943-3.657 0 0 3.657 0 3.657-7.314 0 0 0-3.657 0-3.657h-51.2z M596.114 179.2h-171.886v-18.286c0-21.943 0-40.229 7.314-62.171 7.314-14.629 14.629-25.6 25.6-32.914 18.286-7.314 32.914-10.971 54.857-10.971s36.571 3.657 51.2 14.629c10.971 7.314 18.286 18.286 25.6 32.914 7.314 18.286 7.314 40.229 7.314 62.171v14.629zM464.457 142.629h95.086c0-10.971-3.657-21.943-7.314-29.257s-7.314-10.971-10.971-14.629c-14.629-10.971-47.543-10.971-62.171 0-3.657 3.657-7.314 7.314-10.971 14.629s-3.657 18.286-3.657 29.257z M870.4 804.571h-742.4v-40.229l7.314-10.971 76.8-76.8v-248.686c0-160.914 131.657-292.571 292.571-292.571h10.971c160.914 0 292.571 131.657 292.571 292.571v248.686l84.114 84.114v40.229l-21.943 3.657zM219.429 749.714h585.143l-47.543-47.543v-270.629c0-131.657-106.057-237.714-237.714-237.714h-10.971c-131.657 0-237.714 106.057-237.714 237.714v270.629l-51.2 47.543z" fill="#505050"/>
</svg>